<svg width="34" height="25" viewBox="0 0 34 25" fill="none" xmlns="http://www.w3.org/2000/svg">
<path d="M1.78672 0.617188C2.14609 0.617188 2.41953 1.25781 2.60703 2.53906C4.57578 5.85156 5.56016 7.85156 5.56016 8.53906L6.14609 10.8828H6.21641C6.88828 7.14844 7.59922 4.49219 8.34922 2.91406C8.92734 1.67969 9.39609 1.0625 9.75547 1.0625C10.2711 1.0625 10.5914 1.73438 10.7164 3.07812C10.9977 4.625 11.1383 6.6875 11.1383 9.26562V15.1016C11.2633 19.1797 11.5367 21.2188 11.9586 21.2188C12.2555 21.375 12.4039 21.625 12.4039 21.9688C12.4039 22.8281 12.1852 23.3906 11.7477 23.6562H11.3023C10.4742 23.2656 9.92734 20.0156 9.66172 13.9062L9.75547 11.2578V9.125C9.72422 5.8125 9.59922 4.15625 9.38047 4.15625H9.31016C8.71641 5.53125 8.09922 7.99219 7.45859 11.5391C7.27109 13.6172 6.95078 14.6562 6.49766 14.6562H6.14609C5.67734 14.6562 5.00547 12.5625 4.13047 8.375L3.16953 6.24219H2.95859L3.16953 12.3594L3.09922 22.7656C3.03672 23.2656 2.79453 23.5156 2.37266 23.5156C1.93516 23.4219 1.71641 23.2188 1.71641 22.9062L1.78672 11.8438C1.78672 8.375 1.51328 4.85938 0.966406 1.29688C0.966406 0.9375 1.23984 0.710938 1.78672 0.617188ZM16.8664 15.1484L18.2727 15.3828V15.3125C18.6164 15.3125 18.882 15.5859 19.0695 16.1328L18.9992 17.6094V18.6406C18.9992 20.1562 19.218 21.2891 19.6555 22.0391C19.5305 22.4297 19.2883 22.625 18.9289 22.625C18.4133 22.625 18.0383 22.0312 17.8039 20.8438L17.757 20.4688H17.5461C16.9836 21.7969 16.1867 22.6797 15.1555 23.1172L14.8039 23.2109C13.4602 22.8359 12.7883 21.8516 12.7883 20.2578V20.1172C12.7883 18.1328 13.7492 16.5547 15.6711 15.3828L16.8664 15.1484ZM14.1945 20.5625C14.3039 21.3438 14.5539 21.7344 14.9445 21.7344H15.0148C15.5617 21.7344 16.4211 20.0859 17.593 16.7891V16.7188L16.9133 16.5781H16.8664C15.6164 16.5781 14.7258 17.6562 14.1945 19.8125V20.5625ZM24.3055 3.05469C24.493 3.05469 24.6961 3.19531 24.9148 3.47656V5.23438C24.9148 10.4219 25.3367 16.0391 26.1805 22.0859L26.6727 23.6328C26.5633 24.0234 26.3211 24.2188 25.9461 24.2188C25.4617 24.2188 25.118 23.6328 24.9148 22.4609H24.7508C24.1727 22.9922 23.6023 23.2578 23.0398 23.2578C21.7586 23.2578 20.8055 22.4297 20.1805 20.7734C19.9773 20.2266 19.8758 19.5781 19.8758 18.8281C19.8758 17.0469 20.4695 15.8125 21.657 15.125L22.1727 15.0781H22.243C22.7117 15.0781 23.2742 15.2969 23.9305 15.7344H24.0242V15.6641C23.6805 11.6328 23.5086 8.33594 23.5086 5.77344V4.20312C23.5086 3.4375 23.7742 3.05469 24.3055 3.05469ZM21.282 18.7578V19.2969C21.282 20.4531 21.7039 21.2891 22.5477 21.8047L23.0398 21.8516C23.7898 21.8516 24.1648 21.1172 24.1648 19.6484V18.9922C24.1648 17.6641 23.4773 16.8281 22.1023 16.4844C21.5555 16.8125 21.282 17.5703 21.282 18.7578Z" fill="black"/>
<path d="M31.7914 15.1484C32.2914 15.1484 32.5414 15.6953 32.5414 16.7891C32.5414 18.0391 32.6273 19.5547 32.7992 21.3359C33.2992 21.5547 33.5492 21.8203 33.5492 22.1328V22.2266C33.5492 22.6172 33.2836 22.8594 32.7523 22.9531C32.4086 22.9531 32.1117 22.625 31.8617 21.9688C31.2055 22.8281 30.5648 23.2578 29.9398 23.2578C28.5492 23.2109 27.6586 22.5156 27.268 21.1719C27.1273 19.6719 27.057 18.0781 27.057 16.3906V15.9453C27.057 15.3984 27.307 15.125 27.807 15.125C28.1664 15.125 28.3852 15.4219 28.4633 16.0156V16.3906C28.1508 20.1094 28.643 21.8828 29.9398 21.7109C30.7992 21.1328 31.2445 20.375 31.2758 19.4375V18.7812L30.9945 16.6484V16.4141C30.9945 15.5703 31.2602 15.1484 31.7914 15.1484Z" fill="white"/>
</svg>
