<svg width="80" height="56" viewBox="0 0 80 56" fill="none" xmlns="http://www.w3.org/2000/svg">
<path d="M2.80235 0.773438C3.64089 0.773438 4.27891 2.26823 4.71641 5.25781C9.31016 12.987 11.607 17.6536 11.607 19.2578L12.9742 24.7266H13.1383C14.706 16.013 16.3648 9.8151 18.1148 6.13281C19.4638 3.2526 20.5576 1.8125 21.3961 1.8125C22.5992 1.8125 23.3466 3.38021 23.6383 6.51562C24.2945 10.125 24.6227 14.9375 24.6227 20.9531V34.5703C24.9143 44.0859 25.5523 48.8438 26.5367 48.8438C27.2294 49.2083 27.5758 49.7917 27.5758 50.5938C27.5758 52.599 27.0654 53.9115 26.0445 54.5312H25.0055C23.0732 53.6198 21.7971 46.0365 21.1773 31.7812L21.3961 25.6016V20.625C21.3232 12.8958 21.0315 9.03125 20.5211 9.03125H20.357C18.9716 12.2396 17.5315 17.9818 16.0367 26.2578C15.5992 31.1068 14.8518 33.5312 13.7945 33.5312H12.9742C11.8805 33.5312 10.3128 28.6458 8.2711 18.875L6.02891 13.8984H5.53672L6.02891 28.1719L5.86485 52.4531C5.71901 53.6198 5.15391 54.2031 4.16953 54.2031C3.1487 53.9844 2.63828 53.5104 2.63828 52.7812L2.80235 26.9688C2.80235 18.875 2.16432 10.6719 0.888283 2.35938C0.888283 1.52083 1.5263 0.992188 2.80235 0.773438ZM38.7883 34.6797L42.0695 35.2266V35.0625C42.8716 35.0625 43.4914 35.7005 43.9289 36.9766L43.7648 40.4219V42.8281C43.7648 46.3646 44.2753 49.0078 45.2961 50.7578C45.0044 51.6693 44.4393 52.125 43.6008 52.125C42.3977 52.125 41.5227 50.7396 40.9758 47.9688L40.8664 47.0938H40.3742C39.0617 50.1927 37.2023 52.2526 34.7961 53.2734L33.9758 53.4922C30.8404 52.6172 29.2727 50.3203 29.2727 46.6016V46.2734C29.2727 41.6432 31.5148 37.9609 35.9992 35.2266L38.7883 34.6797ZM32.5539 47.3125C32.8091 49.1354 33.3924 50.0469 34.3039 50.0469H34.468C35.744 50.0469 37.7492 46.2005 40.4836 38.5078V38.3438L38.8977 38.0156H38.7883C35.8716 38.0156 33.7935 40.5312 32.5539 45.5625V47.3125ZM56.9461 6.46094C57.3836 6.46094 57.8576 6.78906 58.368 7.44531V11.5469C58.368 23.651 59.3523 36.7578 61.3211 50.8672L62.4695 54.4766C62.2143 55.388 61.6492 55.8438 60.7742 55.8438C59.644 55.8438 58.8419 54.4766 58.368 51.7422H57.9852C56.6362 52.9818 55.3055 53.6016 53.993 53.6016C51.0034 53.6016 48.7794 51.6693 47.3211 47.8047C46.8471 46.5286 46.6102 45.0156 46.6102 43.2656C46.6102 39.1094 47.9956 36.2292 50.7664 34.625L51.9695 34.5156H52.1336C53.2273 34.5156 54.5398 35.026 56.0711 36.0469H56.2898V35.8828C55.4878 26.4766 55.0867 18.7839 55.0867 12.8047V9.14062C55.0867 7.35417 55.7065 6.46094 56.9461 6.46094ZM49.8914 43.1016V44.3594C49.8914 47.0573 50.8758 49.0078 52.8445 50.2109L53.993 50.3203C55.743 50.3203 56.618 48.6068 56.618 45.1797V43.6484C56.618 40.5495 55.0138 38.599 51.8055 37.7969C50.5294 38.5625 49.8914 40.3307 49.8914 43.1016Z" fill="black"/>
<path d="M75.2133 34.6797C76.38 34.6797 76.9633 35.9557 76.9633 38.5078C76.9633 41.4245 77.1638 44.9609 77.5648 49.1172C78.7315 49.6276 79.3148 50.2474 79.3148 50.9766V51.1953C79.3148 52.1068 78.6951 52.6719 77.4555 52.8906C76.6534 52.8906 75.9607 52.125 75.3773 50.5938C73.8461 52.599 72.3513 53.6016 70.893 53.6016C67.6482 53.4922 65.5701 51.8698 64.6586 48.7344C64.3305 45.2344 64.1664 41.5156 64.1664 37.5781V36.5391C64.1664 35.263 64.7497 34.625 65.9164 34.625C66.755 34.625 67.2654 35.3177 67.4477 36.7031V37.5781C66.7185 46.2552 67.8669 50.3932 70.893 49.9922C72.8982 48.6432 73.9372 46.875 74.0102 44.6875V43.1562L73.3539 38.1797V37.6328C73.3539 35.6641 73.9737 34.6797 75.2133 34.6797Z" fill="#FFC107"/>
</svg>
