<svg width="12" height="164" viewBox="0 0 12 164" fill="none" xmlns="http://www.w3.org/2000/svg">
<rect x="5" y="6.36963" width="2" height="153.263" rx="1" fill="#B8B8C9"/>
<rect x="5.5" y="8.85986" width="1" height="95.5359" rx="0.5" stroke="#1B58E4"/>
<path d="M6 11.3494C8.7569 11.3494 11 9.12393 11 6.36856C11 3.61319 8.7569 1.3877 6 1.3877C3.2431 1.3877 1 3.61319 1 6.36856C1 9.12393 3.2431 11.3494 6 11.3494Z" fill="#F5F5FA" stroke="#1B58E4" stroke-width="2"/>
<path d="M6 86.9866C8.7569 86.9866 11 84.7611 11 82.0058C11 79.2504 8.7569 77.0249 6 77.0249C3.2431 77.0249 1 79.2504 1 82.0058C1 84.7611 3.2431 86.9866 6 86.9866Z" fill="#F5F5FA" stroke="#1B58E4" stroke-width="2"/>
<path d="M6 162.623C8.7569 162.623 11 160.397 11 157.642C11 154.887 8.7569 152.661 6 152.661C3.2431 152.661 1 154.887 1 157.642C1 160.397 3.2431 162.623 6 162.623Z" fill="#F5F5FA" stroke="#B8B8C9" stroke-width="2"/>
</svg>
